<?xml version="1.0" encoding="UTF-8" standalone="no"?>
<!-- Created with Inkscape (http://www.inkscape.org/) -->

<svg
   xmlns:dc="http://purl.org/dc/elements/1.1/"
   xmlns:cc="http://creativecommons.org/ns#"
   xmlns:rdf="http://www.w3.org/1999/02/22-rdf-syntax-ns#"
   xmlns:svg="http://www.w3.org/2000/svg"
   xmlns="http://www.w3.org/2000/svg"
   xmlns:sodipodi="http://sodipodi.sourceforge.net/DTD/sodipodi-0.dtd"
   xmlns:inkscape="http://www.inkscape.org/namespaces/inkscape"
   version="1.1"
   id="svg67"
   xml:space="preserve"
   width="272.88666"
   height="454.71466"
   viewBox="0 0 272.88666 454.71466"
   sodipodi:docname="roundedwidth.svg"
   inkscape:export-filename="/home/puffamalefica/Scaricati/roundedwidth.pdf.png"
   inkscape:export-xdpi="54.907112"
   inkscape:export-ydpi="54.907112"
   inkscape:version="0.92.3 (2405546, 2018-03-11)"><metadata
     id="metadata73"><rdf:RDF><cc:Work
         rdf:about=""><dc:format>image/svg+xml</dc:format><dc:type
           rdf:resource="http://purl.org/dc/dcmitype/StillImage" /><dc:title></dc:title></cc:Work></rdf:RDF></metadata><defs
     id="defs71"><clipPath
       clipPathUnits="userSpaceOnUse"
       id="clipPath83"><path
         d="M 0,341.036 H 204.665 V 0 H 0 Z"
         id="path81"
         inkscape:connector-curvature="0" /></clipPath></defs><sodipodi:namedview
     pagecolor="#ffffff"
     bordercolor="#666666"
     borderopacity="1"
     objecttolerance="10"
     gridtolerance="10"
     guidetolerance="10"
     inkscape:pageopacity="0"
     inkscape:pageshadow="2"
     inkscape:window-width="1920"
     inkscape:window-height="1017"
     id="namedview69"
     showgrid="false"
     inkscape:snap-center="true"
     inkscape:zoom="0.76353319"
     inkscape:cx="-100.96248"
     inkscape:cy="369.36538"
     inkscape:window-x="0"
     inkscape:window-y="30"
     inkscape:window-maximized="1"
     inkscape:current-layer="g79" /><g
     id="g75"
     inkscape:groupmode="layer"
     inkscape:label="roundedwidth"
     transform="matrix(1.3333333,0,0,-1.3333333,0,454.71467)"><g
       id="g77"><g
         id="g79"
         clip-path="url(#clipPath83)"><g
           id="g85"
           transform="translate(179.89267,57.3013)"
           style="fill:#000000"><path
             d="m 0,0 v -27.801 c 0,-1.103 -0.896,-1.998 -1.999,-1.998 h -151.326 c -1.104,0 -1.999,0.895 -1.999,1.998 V 0 c 0,1.104 -0.895,1.999 -1.998,1.999 h -20.674 c -1.104,0 -1.999,-0.895 -1.999,-1.999 v -29.799 -22.673 c 0,-1.103 0.895,-1.999 1.999,-1.999 H -155.324 0 22.672 c 1.103,0 1.999,0.896 1.999,1.999 V -29.799 0 c 0,1.104 -0.896,1.999 -1.999,1.999 H 1.998 C 0.895,1.999 0,1.104 0,0"
             style="fill:#000000;fill-opacity:1;fill-rule:nonzero;stroke:none"
             id="path87"
             inkscape:connector-curvature="0" /></g><g
           id="g89"
           transform="translate(179.37567,256.2663)"><path
             d="m 0,0 c -0.018,-0.015 -0.035,-0.029 -0.052,-0.045 l -151.425,-135.787 c -1.286,-1.153 -3.33,-0.24 -3.33,1.486 V -1.531 c 0,1.102 -0.893,1.997 -1.996,1.997 h -20.677 c -1.103,0 -1.998,-0.895 -1.998,-1.997 v -168.435 c 0,-1.102 0.895,-1.996 1.998,-1.996 0,0 21.593,-0.129 21.931,-0.129 0.626,0 1.259,0.576 1.47,0.78 0.51,0.437 151.27,134.939 151.27,134.939 1.288,1.147 3.327,0.234 3.327,-1.49 v -132.104 c 0,-1.102 0.893,-1.996 1.996,-1.996 h 20.677 c 1.103,0 1.997,0.894 1.997,1.996 V -1.531 c 0,1.102 -0.894,1.997 -1.997,1.997 H 1.281 C 0.812,0.466 0.358,0.3 0,0"
             style="fill:#be1e2d;fill-opacity:1;fill-rule:nonzero;stroke:none"
             id="path91"
             inkscape:connector-curvature="0" /></g><g
           id="g93"
           transform="translate(180.19936,335.0358)"
           style="fill:#000000"><path
             d="M -0.30668705,3.2713286 H -155.63069 h -22.675 c -1.103,0 -1.996,-0.894 -1.996,-1.996 v -22.6749996 -29.803 c 0,-1.102 0.893,-1.996 1.996,-1.996 h 20.68 c 1.101,0 1.995,0.894 1.995,1.996 v 27.807 c 0,1.103 0.893,1.996 1.996,1.996 H -2.3026871 c 1.102,0 1.99600005,-0.893 1.99600005,-1.996 v -27.807 c 0,-1.102 0.893,-1.996 1.99499995,-1.996 H 22.368313 c 1.102,0 1.996,0.894 1.996,1.996 v 29.803 22.6749996 c 0,1.102 -0.894,1.996 -1.996,1.996 z"
             style="fill:#000000;fill-opacity:1;fill-rule:nonzero;stroke:none"
             id="path95"
             inkscape:connector-curvature="0" /></g></g></g></g></svg>